<?xml version="1.0" encoding="utf-8"?>
<!-- Generator: Adobe Illustrator 21.0.0, SVG Export Plug-In . SVG Version: 6.00 Build 0)  -->
<svg version="1.1" id="Layer_2" xmlns="http://www.w3.org/2000/svg" xmlns:xlink="http://www.w3.org/1999/xlink" x="0px" y="0px"
	 viewBox="0 0 6198.5 1194.7" style="enable-background:new 0 0 6198.5 1194.7;" xml:space="preserve">
<style type="text/css">
	.st0{display:none;}
	.st1{fill:#9A3334;}
	.st2{fill:#CD3333;}
	.st3{font-family:'Roboto-BlackItalic';}
	.st4{font-size:855.436px;}
	.st5{fill:#262626;}
	.st6{font-family:'Roboto-MediumItalic';}
	.st7{font-size:301.9661px;}
</style>
<g id="Layer_1">
	<g>
		<polygon class="st1" points="539.2,976.1 379.5,852.2 327.8,1019.9 142.2,865.5 202.3,728.7 82.1,633.1 537.7,0.5 		"/>
		<polygon class="st1" points="748.8,1019.9 537.7,1194.7 539.2,976.1 697.2,850.2 		"/>
		<polygon class="st1" points="1078.4,747.1 936.7,864.4 878.6,727.9 995.4,632.5 		"/>
		<polygon class="st2" points="878.6,727.9 936.7,864.4 748.8,1019.9 697.2,850.2 539.2,976.1 537.7,0.5 995.4,632.5 		"/>
		<polygon class="st2" points="539.2,976.1 537.7,1194.7 327.8,1019.9 379.5,852.2 		"/>
		<polygon class="st2" points="202.3,728.7 142.2,865.5 0,747.1 82.1,633.1 		"/>
	</g>
	<text transform="matrix(1 0 0 1 1228.7988 731.7988)"><tspan x="0" y="0" class="st2 st3 st4">Red</tspan><tspan x="1472.4" y="0" class="st5 st3 st4">Piramida</tspan></text>
	<text transform="matrix(1 0 0 1 1224.6405 1112.8521)" class="st2 st6 st7">High Performance Culture</text>
</g>
</svg>
